<?xml version="1.0" encoding="utf-8"?><svg xmlns="http://www.w3.org/2000/svg" xmlns:xlink="http://www.w3.org/1999/xlink"><symbol viewBox="0 0 512 512" id="svg--facebook" xmlns="http://www.w3.org/2000/svg"><path d="M288 176v-64c0-17.664 14.336-32 32-32h32V0h-64c-53.024 0-96 42.976-96 96v80h-64v80h64v256h96V256h64l32-80h-96z"/></symbol><symbol viewBox="0 0 291.32 291.32" id="svg--github" xmlns="http://www.w3.org/2000/svg"><path d="M145.66 0C65.219 0 0 65.219 0 145.66c0 80.45 65.219 145.66 145.66 145.66s145.66-65.21 145.66-145.66C291.319 65.219 226.1 0 145.66 0zm40.802 256.625c-.838-11.398-1.775-25.518-1.83-31.235-.364-4.388-.838-15.549-11.434-22.677 42.068-3.523 62.087-26.774 63.526-57.499 1.202-17.497-5.754-32.883-18.107-45.3.628-13.282-.401-29.023-1.256-35.941-9.486-2.731-31.608 8.949-37.79 13.947-13.037-5.062-44.945-6.837-64.336 0-13.747-9.668-29.396-15.64-37.926-13.974-7.875 17.452-2.813 33.948-1.275 35.914-10.142 9.268-24.289 20.675-20.447 44.572 6.163 35.04 30.816 53.94 70.508 58.564-8.466 1.73-9.896 8.048-10.606 10.788-26.656 10.997-34.275-6.791-37.644-11.425-11.188-13.847-21.23-9.832-21.849-9.614-.601.218-1.056 1.092-.992 1.511.564 2.986 6.655 6.018 6.955 6.263 8.257 6.154 11.316 17.27 13.2 20.438 11.844 19.473 39.374 11.398 39.638 11.562.018 1.702-.191 16.032-.355 27.184C64.245 245.992 27.311 200.2 27.311 145.66c0-65.365 52.984-118.348 118.348-118.348S264.008 80.295 264.008 145.66c0 51.008-32.318 94.332-77.546 110.965z"/></symbol><symbol viewBox="0 0 512 512" id="svg--twitter" xmlns="http://www.w3.org/2000/svg"><path d="M256 0C114.637 0 0 114.637 0 256s114.637 256 256 256 256-114.637 256-256S397.363 0 256 0zm116.887 199.602c.113 2.52.168 5.05.168 7.593 0 77.645-59.102 167.18-167.184 167.184h.004-.004c-33.184 0-64.062-9.727-90.066-26.395 4.597.543 9.277.813 14.015.813 27.532 0 52.868-9.39 72.98-25.152-25.722-.477-47.41-17.465-54.894-40.813a58.481 58.481 0 0011.043 1.063 58.8 58.8 0 0015.496-2.07c-26.886-5.384-47.14-29.145-47.14-57.598 0-.266 0-.504.007-.75a58.354 58.354 0 0026.614 7.347c-15.778-10.527-26.149-28.523-26.149-48.91a58.597 58.597 0 017.957-29.535c28.977 35.555 72.282 58.937 121.118 61.394a58.708 58.708 0 01-1.528-13.398c0-32.437 26.317-58.754 58.766-58.754 16.902 0 32.168 7.145 42.89 18.567a117.855 117.855 0 0037.313-14.262c-4.395 13.715-13.707 25.222-25.84 32.5 11.887-1.422 23.215-4.574 33.742-9.254a119.412 119.412 0 01-29.308 30.43zm0 0"/></symbol><symbol viewBox="0 0 511.962 511.962" id="svg--vk" xmlns="http://www.w3.org/2000/svg"><path d="M507.399 370.471c-1.376-2.304-9.888-20.8-50.848-58.816-42.88-39.808-37.12-33.344 14.528-102.176 31.456-41.92 44.032-67.52 40.096-78.464-3.744-10.432-26.88-7.68-26.88-7.68l-76.928.448s-5.696-.768-9.952 1.76c-4.128 2.496-6.784 8.256-6.784 8.256s-12.192 32.448-28.448 60.032c-34.272 58.208-48 61.28-53.6 57.664-13.024-8.416-9.76-33.856-9.76-51.904 0-56.416 8.544-79.936-16.672-86.016-8.384-2.016-14.528-3.36-35.936-3.584-27.456-.288-50.72.096-63.872 6.528-8.768 4.288-15.52 13.856-11.392 14.4 5.088.672 16.608 3.104 22.72 11.424 7.904 10.72 7.616 34.848 7.616 34.848s4.544 66.4-10.592 74.656c-10.4 5.664-24.64-5.888-55.2-58.72-15.648-27.04-27.488-56.96-27.488-56.96s-2.272-5.568-6.336-8.544c-4.928-3.616-11.84-4.768-11.84-4.768l-73.152.448s-10.976.32-15.008 5.088c-3.584 4.256-.288 13.024-.288 13.024s57.28 133.984 122.112 201.536c59.488 61.92 127.008 57.856 127.008 57.856h30.592s9.248-1.024 13.952-6.112c4.352-4.672 4.192-13.44 4.192-13.44s-.608-41.056 18.464-47.104c18.784-5.952 42.912 39.68 68.48 57.248 19.328 13.28 34.016 10.368 34.016 10.368l68.384-.96s35.776-2.208 18.816-30.336z"/></symbol></svg>